<svg xmlns="http://www.w3.org/2000/svg" viewBox="0 0 1180 940" font-family="Segoe UI, Helvetica, Arial, sans-serif">
<rect width="1180" height="940" fill="#0b1024"/>
<defs>
<linearGradient id="g0" x1="0" y1="0" x2="0" y2="1"><stop offset="0" stop-color="#64748b"/><stop offset="1" stop-color="#334155"/></linearGradient>
<linearGradient id="g1" x1="0" y1="0" x2="0" y2="1"><stop offset="0" stop-color="#7c5cff"/><stop offset="1" stop-color="#4c34b8"/></linearGradient>
<linearGradient id="g2" x1="0" y1="0" x2="0" y2="1"><stop offset="0" stop-color="#0ea5a4"/><stop offset="1" stop-color="#0f766e"/></linearGradient>
<linearGradient id="g3" x1="0" y1="0" x2="0" y2="1"><stop offset="0" stop-color="#f59e0b"/><stop offset="1" stop-color="#b45309"/></linearGradient>
<linearGradient id="g4" x1="0" y1="0" x2="0" y2="1"><stop offset="0" stop-color="#22c55e"/><stop offset="1" stop-color="#15803d"/></linearGradient>
<linearGradient id="sLibrary" x1="0" y1="0" x2="0" y2="1"><stop offset="0" stop-color="#e0a43b"/><stop offset="1" stop-color="#a9741d"/></linearGradient>
<linearGradient id="sCafeteria" x1="0" y1="0" x2="0" y2="1"><stop offset="0" stop-color="#3aa66b"/><stop offset="1" stop-color="#1f6e44"/></linearGradient>
<linearGradient id="sEvents" x1="0" y1="0" x2="0" y2="1"><stop offset="0" stop-color="#e5688a"/><stop offset="1" stop-color="#b13a5e"/></linearGradient>
<linearGradient id="sAcademics" x1="0" y1="0" x2="0" y2="1"><stop offset="0" stop-color="#4f86e0"/><stop offset="1" stop-color="#2f5bb0"/></linearGradient>
<filter id="soft" x="-20%" y="-20%" width="140%" height="170%"><feDropShadow dx="0" dy="7" stdDeviation="9" flood-color="#05081e" flood-opacity="0.35"/></filter>
<marker id="arr" viewBox="0 0 10 10" refX="8" refY="5" markerWidth="7" markerHeight="7" orient="auto"><path d="M0 0 L10 5 L0 10 z" fill="#94a3b8"/></marker>
</defs>
<text x="590.0" y="46" fill="#e2e8f0" font-size="29" font-weight="700" text-anchor="middle">Unified Campus Intelligence — Layered Architecture</text>
<text x="590.0" y="73" fill="#94a3b8" font-size="14" text-anchor="middle">the assistant queries independent MCP servers live — there is no shared database</text>
<rect x="312" y="108" width="720" height="74" rx="13" fill="#334155" opacity="0.55"/>
<rect x="300" y="96" width="720" height="74" rx="13" fill="url(#g0)" filter="url(#soft)"/>
<rect x="300" y="96" width="6" height="74" rx="3" fill="#fff" opacity="0.85"/>
<text x="324" y="126" fill="#fff" font-size="17" font-weight="700">STUDENT</text>
<text x="324" y="150" fill="#f1f5f9" font-size="12.5" opacity="0.95">asks a question in plain language</text>
<line x1="660.0" y1="182" x2="660.0" y2="194" stroke="#94a3b8" stroke-width="2.5" marker-end="url(#arr)"/>
<rect x="312" y="206" width="720" height="74" rx="13" fill="#4c34b8" opacity="0.55"/>
<rect x="300" y="194" width="720" height="74" rx="13" fill="url(#g1)" filter="url(#soft)"/>
<rect x="300" y="194" width="6" height="74" rx="3" fill="#fff" opacity="0.85"/>
<text x="324" y="224" fill="#fff" font-size="17" font-weight="700">FRONTEND — React + Vite  (Vercel)</text>
<text x="324" y="248" fill="#f1f5f9" font-size="12.5" opacity="0.95">chat assistant  •  live 'today on campus' dashboard</text>
<line x1="660.0" y1="280" x2="660.0" y2="292" stroke="#94a3b8" stroke-width="2.5" marker-end="url(#arr)"/>
<rect x="312" y="304" width="720" height="74" rx="13" fill="#0f766e" opacity="0.55"/>
<rect x="300" y="292" width="720" height="74" rx="13" fill="url(#g2)" filter="url(#soft)"/>
<rect x="300" y="292" width="6" height="74" rx="3" fill="#fff" opacity="0.85"/>
<text x="324" y="322" fill="#fff" font-size="17" font-weight="700">ORCHESTRATOR — FastAPI  (Render)</text>
<text x="324" y="346" fill="#f1f5f9" font-size="12.5" opacity="0.95">/api/chat   •   /api/tools   •   /api/dashboard</text>
<line x1="660.0" y1="378" x2="660.0" y2="390" stroke="#94a3b8" stroke-width="2.5" marker-end="url(#arr)"/>
<rect x="312" y="402" width="720" height="74" rx="13" fill="#b45309" opacity="0.55"/>
<rect x="300" y="390" width="720" height="74" rx="13" fill="url(#g3)" filter="url(#soft)"/>
<rect x="300" y="390" width="6" height="74" rx="3" fill="#fff" opacity="0.85"/>
<text x="324" y="420" fill="#fff" font-size="17" font-weight="700">AI ROUTER</text>
<text x="324" y="444" fill="#f1f5f9" font-size="12.5" opacity="0.95">LLM tool-calling (Anthropic)  —or—  rule-based fallback (no key needed)</text>
<line x1="660.0" y1="476" x2="660.0" y2="488" stroke="#94a3b8" stroke-width="2.5" marker-end="url(#arr)"/>
<rect x="312" y="500" width="720" height="74" rx="13" fill="#15803d" opacity="0.55"/>
<rect x="300" y="488" width="720" height="74" rx="13" fill="url(#g4)" filter="url(#soft)"/>
<rect x="300" y="488" width="6" height="74" rx="3" fill="#fff" opacity="0.85"/>
<text x="324" y="518" fill="#fff" font-size="17" font-weight="700">MCP HOST</text>
<text x="324" y="542" fill="#f1f5f9" font-size="12.5" opacity="0.95">opens a session per server  •  aggregates all tools  •  routes each call to its owner</text>
<line x1="660.0" y1="574" x2="660.0" y2="598" stroke="#94a3b8" stroke-width="2.5" marker-end="url(#arr)"/>
<text x="300" y="606" fill="#cbd5e1" font-size="13" font-weight="700">INDEPENDENT MCP SERVERS — each owns its data</text>
<rect x="308.0" y="632" width="168.0" height="118" rx="12" fill="#a9741d" opacity="0.5"/>
<rect x="300.0" y="620" width="168.0" height="118" rx="12" fill="url(#sLibrary)" filter="url(#soft)"/>
<text x="384.0" y="646" fill="#fff" font-size="14" font-weight="700" text-anchor="middle">Library</text>
<text x="384.0" y="670" fill="#fff" font-size="10.5" opacity="0.92" text-anchor="middle" font-family="monospace">search_catalog</text>
<text x="384.0" y="686" fill="#fff" font-size="10.5" opacity="0.92" text-anchor="middle" font-family="monospace">check_availability</text>
<rect x="352.0" y="704" width="64" height="20" rx="6" fill="rgba(0,0,0,0.28)"/>
<text x="384.0" y="718" fill="#fff" font-size="9.5" text-anchor="middle" font-family="monospace">own data</text>
<line x1="660.0" y1="610" x2="384.0" y2="618" stroke="#94a3b8" stroke-width="1.6" marker-end="url(#arr)"/>
<rect x="492.0" y="632" width="168.0" height="118" rx="12" fill="#1f6e44" opacity="0.5"/>
<rect x="484.0" y="620" width="168.0" height="118" rx="12" fill="url(#sCafeteria)" filter="url(#soft)"/>
<text x="568.0" y="646" fill="#fff" font-size="14" font-weight="700" text-anchor="middle">Cafeteria</text>
<text x="568.0" y="670" fill="#fff" font-size="10.5" opacity="0.92" text-anchor="middle" font-family="monospace">get_menu</text>
<text x="568.0" y="686" fill="#fff" font-size="10.5" opacity="0.92" text-anchor="middle" font-family="monospace">find_dish</text>
<rect x="536.0" y="704" width="64" height="20" rx="6" fill="rgba(0,0,0,0.28)"/>
<text x="568.0" y="718" fill="#fff" font-size="9.5" text-anchor="middle" font-family="monospace">own data</text>
<line x1="660.0" y1="610" x2="568.0" y2="618" stroke="#94a3b8" stroke-width="1.6" marker-end="url(#arr)"/>
<rect x="676.0" y="632" width="168.0" height="118" rx="12" fill="#b13a5e" opacity="0.5"/>
<rect x="668.0" y="620" width="168.0" height="118" rx="12" fill="url(#sEvents)" filter="url(#soft)"/>
<text x="752.0" y="646" fill="#fff" font-size="14" font-weight="700" text-anchor="middle">Events</text>
<text x="752.0" y="670" fill="#fff" font-size="10.5" opacity="0.92" text-anchor="middle" font-family="monospace">list_events</text>
<text x="752.0" y="686" fill="#fff" font-size="10.5" opacity="0.92" text-anchor="middle" font-family="monospace">next_event</text>
<rect x="720.0" y="704" width="64" height="20" rx="6" fill="rgba(0,0,0,0.28)"/>
<text x="752.0" y="718" fill="#fff" font-size="9.5" text-anchor="middle" font-family="monospace">own data</text>
<line x1="660.0" y1="610" x2="752.0" y2="618" stroke="#94a3b8" stroke-width="1.6" marker-end="url(#arr)"/>
<rect x="860.0" y="632" width="168.0" height="118" rx="12" fill="#2f5bb0" opacity="0.5"/>
<rect x="852.0" y="620" width="168.0" height="118" rx="12" fill="url(#sAcademics)" filter="url(#soft)"/>
<text x="936.0" y="646" fill="#fff" font-size="14" font-weight="700" text-anchor="middle">Academics</text>
<text x="936.0" y="670" fill="#fff" font-size="10.5" opacity="0.92" text-anchor="middle" font-family="monospace">search_handbook</text>
<text x="936.0" y="686" fill="#fff" font-size="10.5" opacity="0.92" text-anchor="middle" font-family="monospace">get_deadlines</text>
<rect x="904.0" y="704" width="64" height="20" rx="6" fill="rgba(0,0,0,0.28)"/>
<text x="936.0" y="718" fill="#fff" font-size="9.5" text-anchor="middle" font-family="monospace">own data</text>
<line x1="660.0" y1="610" x2="936.0" y2="618" stroke="#94a3b8" stroke-width="1.6" marker-end="url(#arr)"/>
</svg>