<svg xmlns="http://www.w3.org/2000/svg" viewBox="0 0 1180 760" font-family="Segoe UI, Helvetica, Arial, sans-serif">
<rect width="1180" height="760" fill="#0b1024"/>
<defs><marker id="sa" viewBox="0 0 10 10" refX="8" refY="5" markerWidth="7" markerHeight="7" orient="auto"><path d="M0 0 L10 5 L0 10 z" fill="#cbd5e1"/></marker></defs>
<text x="590.0" y="44" fill="#e2e8f0" font-size="28" font-weight="700" text-anchor="middle">Campus Assistant — Request Sequence</text>
<text x="590.0" y="72" fill="#94a3b8" font-size="13" text-anchor="middle">one chat question, routed live to the right MCP server</text>
<line x1="95.0" y1="186" x2="95.0" y2="724" stroke="#334155" stroke-width="1.5"/>
<rect x="27.0" y="136" width="136" height="50" rx="10" fill="#64748b" opacity="0.96"/>
<text x="95.0" y="158" fill="#fff" font-size="13" font-weight="600" text-anchor="middle">Student</text>
<line x1="293.0" y1="186" x2="293.0" y2="724" stroke="#334155" stroke-width="1.5"/>
<rect x="225.0" y="136" width="136" height="50" rx="10" fill="#7c5cff" opacity="0.96"/>
<text x="293.0" y="158" fill="#fff" font-size="13" font-weight="600" text-anchor="middle">Frontend</text>
<text x="293.0" y="173" fill="#fff" font-size="11" font-weight="600" text-anchor="middle">(React)</text>
<line x1="491.0" y1="186" x2="491.0" y2="724" stroke="#334155" stroke-width="1.5"/>
<rect x="423.0" y="136" width="136" height="50" rx="10" fill="#0ea5a4" opacity="0.96"/>
<text x="491.0" y="158" fill="#fff" font-size="13" font-weight="600" text-anchor="middle">Orchestrator</text>
<text x="491.0" y="173" fill="#fff" font-size="11" font-weight="600" text-anchor="middle">(FastAPI)</text>
<line x1="689.0" y1="186" x2="689.0" y2="724" stroke="#334155" stroke-width="1.5"/>
<rect x="621.0" y="136" width="136" height="50" rx="10" fill="#f59e0b" opacity="0.96"/>
<text x="689.0" y="158" fill="#fff" font-size="13" font-weight="600" text-anchor="middle">AI Router</text>
<line x1="887.0" y1="186" x2="887.0" y2="724" stroke="#334155" stroke-width="1.5"/>
<rect x="819.0" y="136" width="136" height="50" rx="10" fill="#22c55e" opacity="0.96"/>
<text x="887.0" y="158" fill="#fff" font-size="13" font-weight="600" text-anchor="middle">MCP Host</text>
<line x1="1085.0" y1="186" x2="1085.0" y2="724" stroke="#334155" stroke-width="1.5"/>
<rect x="1017.0" y="136" width="136" height="50" rx="10" fill="#e0a43b" opacity="0.96"/>
<text x="1085.0" y="158" fill="#fff" font-size="13" font-weight="600" text-anchor="middle">MCP Server</text>
<text x="1085.0" y="173" fill="#fff" font-size="11" font-weight="600" text-anchor="middle">(e.g. library)</text>
<line x1="95.0" y1="228" x2="293.0" y2="228" stroke="#cbd5e1" stroke-width="1.7"  marker-end="url(#sa)"/>
<text x="194.0" y="221" fill="#e2e8f0" font-size="11.5" text-anchor="middle">"is Clean Code available?"</text>
<line x1="293.0" y1="271.6363636363636" x2="491.0" y2="271.6363636363636" stroke="#cbd5e1" stroke-width="1.7"  marker-end="url(#sa)"/>
<text x="392.0" y="264.6363636363636" fill="#e2e8f0" font-size="11.5" text-anchor="middle">POST /api/chat</text>
<line x1="491.0" y1="315.27272727272725" x2="689.0" y2="315.27272727272725" stroke="#cbd5e1" stroke-width="1.7"  marker-end="url(#sa)"/>
<text x="590.0" y="308.27272727272725" fill="#e2e8f0" font-size="11.5" text-anchor="middle">answer(message)</text>
<line x1="689.0" y1="358.9090909090909" x2="887.0" y2="358.9090909090909" stroke="#cbd5e1" stroke-width="1.7"  marker-end="url(#sa)"/>
<text x="788.0" y="351.9090909090909" fill="#e2e8f0" font-size="11.5" text-anchor="middle">list_tools()  — 8 tools, 4 servers</text>
<line x1="689.0" y1="402.5454545454545" x2="887.0" y2="402.5454545454545" stroke="#cbd5e1" stroke-width="1.7"  marker-end="url(#sa)"/>
<text x="788.0" y="395.5454545454545" fill="#e2e8f0" font-size="11.5" text-anchor="middle">call_tool(search_catalog, {...})</text>
<line x1="887.0" y1="446.18181818181813" x2="1085.0" y2="446.18181818181813" stroke="#cbd5e1" stroke-width="1.7"  marker-end="url(#sa)"/>
<text x="986.0" y="439.18181818181813" fill="#e2e8f0" font-size="11.5" text-anchor="middle">MCP tools/call (JSON-RPC over stdio)</text>
<line x1="1085.0" y1="489.81818181818176" x2="887.0" y2="489.81818181818176" stroke="#cbd5e1" stroke-width="1.7" stroke-dasharray="6 4" marker-end="url(#sa)"/>
<text x="986.0" y="482.81818181818176" fill="#e2e8f0" font-size="11.5" text-anchor="middle">live result from its own data</text>
<line x1="887.0" y1="533.4545454545454" x2="689.0" y2="533.4545454545454" stroke="#cbd5e1" stroke-width="1.7" stroke-dasharray="6 4" marker-end="url(#sa)"/>
<text x="788.0" y="526.4545454545454" fill="#e2e8f0" font-size="11.5" text-anchor="middle">parsed result + source = library</text>
<line x1="689.0" y1="577.090909090909" x2="491.0" y2="577.090909090909" stroke="#cbd5e1" stroke-width="1.7" stroke-dasharray="6 4" marker-end="url(#sa)"/>
<text x="590.0" y="570.090909090909" fill="#e2e8f0" font-size="11.5" text-anchor="middle">answer + sources</text>
<line x1="491.0" y1="620.7272727272726" x2="293.0" y2="620.7272727272726" stroke="#cbd5e1" stroke-width="1.7" stroke-dasharray="6 4" marker-end="url(#sa)"/>
<text x="392.0" y="613.7272727272726" fill="#e2e8f0" font-size="11.5" text-anchor="middle">{ answer, sources:[library] }</text>
<line x1="293.0" y1="664.3636363636363" x2="95.0" y2="664.3636363636363" stroke="#cbd5e1" stroke-width="1.7" stroke-dasharray="6 4" marker-end="url(#sa)"/>
<text x="194.0" y="657.3636363636363" fill="#e2e8f0" font-size="11.5" text-anchor="middle">answer + 'Library' station lights up</text>
</svg>